<?xml version="1.0" standalone="no"?>
<!DOCTYPE svg PUBLIC "-//W3C//DTD SVG 20010904//EN"
 "http://www.w3.org/TR/2001/REC-SVG-20010904/DTD/svg10.dtd">
<svg version="1.0" xmlns="http://www.w3.org/2000/svg"
 width="1200.000000pt" height="630.000000pt" viewBox="0 0 1200.000000 630.000000"
 preserveAspectRatio="xMidYMid meet">
<metadata>
Created by potrace 1.16, written by Peter Selinger 2001-2019
</metadata>
<g transform="translate(0.000000,630.000000) scale(0.100000,-0.100000)"
fill="#000000" stroke="none">
<path d="M4163 6279 c-47 -21 -39 -25 10 -4 20 8 42 15 49 14 7 0 -3 -6 -22
-13 -47 -18 -142 -82 -194 -132 -6 -6 -17 -9 -23 -7 -7 3 -27 -9 -45 -26 -18
-17 -44 -40 -58 -51 l-25 -21 34 18 c18 10 35 23 38 30 3 6 17 19 31 29 22 13
20 10 -8 -17 -43 -42 -146 -129 -180 -152 -14 -9 -77 -68 -139 -129 -63 -62
-101 -97 -85 -77 17 19 52 56 78 82 26 26 43 47 37 47 -5 0 -29 -21 -53 -47
-23 -25 -60 -64 -80 -86 -39 -40 -52 -70 -20 -46 14 11 14 10 -2 -8 -10 -13
-22 -20 -27 -18 -10 7 -40 -36 -33 -47 3 -4 2 -13 -2 -19 -5 -8 -9 -8 -14 1
-10 16 -45 -34 -37 -53 2 -7 -4 -23 -14 -36 -11 -13 -19 -19 -19 -14 0 5 5 14
12 21 7 7 8 12 2 12 -14 0 -46 -69 -38 -82 5 -8 1 -9 -10 -5 -14 6 -17 3 -12
-8 3 -9 2 -13 -4 -10 -11 7 -33 -42 -27 -60 3 -6 -2 -20 -10 -30 -15 -19 -15
-18 -9 10 4 23 1 20 -15 -15 -12 -25 -23 -58 -24 -75 -2 -16 -4 -32 -5 -35 0
-3 -4 1 -9 9 -7 11 -14 -1 -26 -43 -9 -31 -15 -63 -12 -69 3 -7 -2 -22 -10
-32 -13 -19 -14 -18 -9 10 3 17 -3 3 -14 -30 -12 -34 -19 -75 -16 -96 2 -21 1
-40 -2 -44 -4 -4 -13 -25 -19 -48 l-13 -42 6 40 c13 92 13 97 -1 45 -8 -30
-16 -80 -18 -110 -3 -30 -2 -41 0 -25 2 17 8 33 12 38 4 4 3 -26 -3 -65 -8
-58 -11 -67 -16 -43 l-6 30 -7 -27 c-4 -15 -2 -38 5 -52 9 -20 8 -49 -2 -124
-12 -94 -10 -218 6 -350 4 -35 2 -61 -6 -77 -8 -15 -10 -33 -4 -52 8 -28 8
-28 14 12 4 25 6 5 6 -55 -1 -85 20 -237 31 -227 2 3 -3 45 -11 93 -9 49 -16
100 -15 114 1 35 40 -167 40 -210 0 -40 29 -184 35 -177 2 2 -2 33 -10 68 -9
35 -13 65 -11 67 4 5 25 -67 25 -89 0 -9 3 -19 7 -23 4 -3 8 -25 9 -49 2 -47
23 -132 30 -124 3 3 1 21 -4 41 -6 21 -7 34 -1 31 5 -4 9 -14 9 -24 0 -9 5
-22 12 -29 8 -8 8 -15 -2 -27 -9 -11 -10 -19 -3 -23 5 -4 15 -30 22 -57 13
-56 36 -102 25 -50 -6 29 -6 29 9 10 9 -11 13 -31 11 -45 -2 -14 5 -43 16 -65
12 -24 17 -30 14 -15 -6 24 -5 24 9 6 8 -11 12 -27 10 -35 -2 -9 6 -38 17 -66
13 -30 18 -38 15 -20 -6 28 -5 29 8 10 8 -10 12 -26 9 -34 -3 -9 -1 -12 5 -8
7 4 9 0 7 -11 -3 -9 4 -38 16 -62 16 -35 20 -38 15 -15 -5 22 -4 27 5 19 6 -6
13 -27 14 -46 2 -19 11 -48 20 -64 13 -22 15 -23 11 -6 -8 29 -1 28 20 -4 9
-15 12 -23 6 -20 -15 9 -14 4 5 -44 12 -31 19 -38 29 -30 9 8 14 6 19 -5 3
-10 2 -13 -5 -10 -5 4 -3 -10 6 -31 19 -45 31 -59 20 -24 l-8 25 21 -25 c11
-13 18 -30 15 -36 -2 -7 5 -29 17 -51 13 -25 18 -29 14 -13 -4 14 -5 23 -3 20
2 -3 13 -16 24 -29 11 -14 14 -21 8 -17 -18 10 -16 2 8 -45 13 -26 25 -39 34
-35 9 3 12 0 9 -9 -6 -16 25 -75 39 -75 5 0 4 7 -3 15 -7 9 -11 18 -8 21 3 2
13 -7 23 -22 9 -15 12 -23 6 -20 -17 11 -13 -6 9 -39 11 -16 20 -26 20 -21 0
6 12 -13 26 -42 14 -29 31 -52 36 -52 6 0 3 9 -7 20 -10 11 -16 23 -13 26 9 8
82 -98 83 -120 0 -12 5 -21 12 -21 6 0 15 -4 20 -9 5 -5 2 -6 -6 -1 -9 5 -12
3 -9 -6 3 -8 13 -13 23 -11 11 2 15 -2 12 -10 -6 -19 23 -74 32 -59 5 8 13 5
27 -11 19 -22 19 -23 -1 -8 -19 15 -19 15 1 -19 10 -19 26 -37 34 -39 11 -4
10 -1 -3 12 -24 24 -22 33 3 11 11 -10 17 -22 14 -26 -7 -13 28 -69 39 -62 5
3 3 10 -4 15 -11 8 -11 9 1 6 8 -3 15 -15 15 -29 0 -13 5 -24 12 -24 6 0 15
-4 20 -9 5 -5 2 -6 -6 -1 -9 5 -12 3 -9 -6 3 -8 12 -13 20 -11 9 1 21 -5 28
-13 11 -13 10 -14 -5 -8 -17 6 -17 5 1 -19 10 -14 22 -22 25 -17 3 5 14 -1 25
-13 19 -22 19 -23 -1 -8 -18 14 -18 13 2 -20 12 -19 28 -37 35 -39 10 -3 10
-1 -1 12 -7 10 -11 17 -8 17 2 0 26 -26 53 -57 27 -31 43 -53 35 -49 -9 6 -12
5 -10 -3 3 -7 7 -11 9 -10 11 5 50 -23 44 -32 -7 -12 22 -59 38 -59 6 0 1 12
-13 28 l-24 27 27 -24 c15 -13 25 -28 22 -33 -7 -10 31 -60 40 -51 8 8 42 -23
68 -62 14 -21 10 -18 -16 10 -19 22 -35 36 -36 31 0 -14 89 -105 92 -95 2 5
62 -50 133 -123 72 -73 119 -123 105 -113 -14 11 -31 28 -38 37 -7 10 -23 23
-35 29 -12 7 3 -11 33 -39 30 -29 59 -52 66 -52 6 0 19 -10 30 -22 19 -23 19
-23 -2 -6 -42 36 -32 17 15 -27 26 -25 52 -45 57 -45 5 0 -4 11 -21 24 -16 13
-28 26 -25 29 3 3 25 -16 50 -42 25 -25 41 -43 36 -38 -6 4 -14 7 -19 7 -5 0
2 -9 16 -20 29 -23 42 -26 31 -7 -5 6 6 -1 24 -18 39 -37 40 -40 5 -19 l-28
16 24 -21 c13 -12 31 -19 38 -17 8 4 11 1 8 -5 -8 -12 22 -49 39 -49 6 0 0 10
-14 21 -25 21 -25 21 -1 7 13 -8 25 -22 27 -32 3 -23 2 -22 65 -55 30 -15 53
-32 52 -39 -3 -12 57 -62 73 -62 5 0 -6 10 -23 21 -18 12 -33 25 -33 30 0 6
16 -3 35 -18 19 -15 35 -32 35 -36 0 -5 3 -6 8 -4 4 3 16 -5 27 -16 l20 -20
-25 12 c-20 10 -18 6 10 -19 38 -34 89 -64 96 -57 3 2 -9 10 -26 17 -17 7 -35
22 -41 32 -7 14 7 7 43 -20 29 -21 53 -44 53 -51 0 -13 24 -31 40 -30 6 0 -1
6 -15 14 -14 8 -20 14 -14 15 6 0 26 -11 45 -25 19 -13 49 -32 67 -42 33 -17
42 -33 20 -33 -15 -1 52 -39 67 -39 6 0 -6 8 -25 19 -19 11 -30 19 -25 19 6 0
25 -8 44 -18 24 -13 30 -20 21 -26 -9 -6 -3 -13 21 -26 19 -10 39 -18 44 -18
6 0 -6 8 -25 19 -43 24 -33 26 14 4 21 -11 32 -22 29 -31 -3 -8 11 -20 42 -34
26 -11 49 -19 51 -16 3 3 -15 13 -40 22 -25 10 -43 21 -41 26 3 4 27 -4 53
-18 60 -33 59 -33 43 -42 -9 -6 0 -13 28 -25 23 -9 47 -16 54 -15 6 0 -8 9
-33 19 -25 10 -39 19 -32 19 12 1 91 -35 242 -108 25 -12 34 -19 20 -16 -14 2
-36 7 -50 10 -14 3 0 -4 30 -15 30 -11 65 -18 77 -15 12 3 24 1 27 -4 3 -4 27
-14 53 -21 27 -7 66 -21 88 -31 22 -9 69 -23 104 -30 44 -8 59 -14 46 -19 -16
-6 -17 -7 -2 -13 9 -3 19 -1 23 4 3 6 16 8 28 4 11 -4 66 -15 121 -25 123 -22
91 -26 -41 -5 -111 18 -138 14 -37 -6 46 -9 188 -14 448 -16 314 -2 397 0 478
14 53 9 95 18 93 20 -3 3 -46 -2 -97 -11 -124 -21 -157 -19 -44 4 50 10 132
30 184 44 52 15 99 25 105 23 6 -2 -16 -10 -48 -17 -33 -8 -54 -16 -48 -18 16
-5 130 30 115 35 -21 8 -15 20 15 28 24 6 149 61 193 85 10 5 21 4 29 -3 10
-9 12 -8 7 5 -4 12 -2 15 8 12 19 -8 75 24 69 39 -3 8 10 20 31 30 48 23 59
21 15 -3 -41 -23 -32 -27 10 -5 21 11 27 20 23 32 -4 11 -3 14 5 9 17 -10 72
21 66 38 -4 9 5 20 23 30 15 8 82 65 148 125 66 61 125 111 130 111 6 0 -1
-10 -15 -21 l-25 -21 25 14 c14 9 25 22 25 30 0 8 32 43 72 77 40 34 82 74 93
89 12 15 19 21 15 15 -10 -20 10 -15 30 7 9 10 15 26 12 34 -4 10 -1 13 8 10
20 -8 42 43 43 100 0 26 5 53 11 59 14 14 14 99 0 131 -9 20 -9 29 0 40 14 16
6 40 -10 31 -5 -3 -6 1 -3 10 9 23 -25 95 -42 88 -10 -4 -12 0 -8 10 7 19 -27
81 -36 67 -4 -6 -15 -1 -26 12 -15 18 -15 20 -1 9 9 -7 17 -10 17 -7 0 20 -87
126 -104 126 -5 0 1 -12 15 -27 23 -27 23 -27 -9 1 -31 29 -42 43 -22 31 6 -3
10 -3 10 2 -1 11 -95 103 -106 103 -5 0 2 -9 16 -20 14 -11 22 -20 18 -20 -13
0 -88 72 -83 80 6 10 -182 180 -200 180 -5 0 -1 -7 10 -16 11 -8 44 -36 73
-62 30 -26 60 -51 68 -55 7 -4 19 -18 24 -30 9 -19 9 -20 -2 -7 -11 14 -222
196 -333 288 -29 24 -32 28 -10 15 17 -10 35 -23 40 -29 6 -6 24 -19 40 -29
27 -15 28 -15 8 0 -12 9 -33 27 -47 40 -14 13 -55 38 -91 56 -41 20 -64 37
-61 45 6 15 -41 47 -59 40 -7 -2 -18 1 -24 8 -6 7 -31 21 -56 31 -43 16 -60
35 -32 35 20 1 -56 39 -78 39 -11 0 -1 -8 25 -19 25 -10 39 -19 32 -19 -7 -1
-42 13 -78 29 -90 42 -233 63 -340 50 -97 -12 -129 -23 -204 -65 -32 -18 -61
-31 -63 -28 -7 6 -64 -24 -74 -40 -4 -7 -20 -20 -35 -30 -16 -10 -28 -22 -28
-27 0 -9 24 7 61 42 17 16 79 58 69 46 -26 -29 -159 -134 -192 -151 -24 -13
-42 -28 -41 -35 5 -23 -308 -312 -339 -312 -4 0 -19 -5 -35 -12 -15 -6 -35
-13 -43 -16 -19 -7 -210 -7 -230 -1 -8 3 -41 13 -74 23 -73 22 -70 29 4 10 30
-8 64 -14 75 -13 11 0 -14 9 -55 19 -42 10 -82 18 -90 17 -20 -2 -120 43 -120
54 0 5 6 9 13 9 6 1 -5 10 -26 21 -21 11 -43 18 -50 17 -7 -2 -48 23 -92 54
-85 60 -194 156 -159 139 12 -6 24 -16 27 -23 2 -7 20 -21 38 -31 l34 -18 -25
20 c-14 12 -34 29 -45 40 -11 10 -31 24 -44 31 -19 10 -22 10 -16 -2 4 -7 -17
11 -48 41 -31 30 -55 57 -52 59 7 7 -15 42 -27 42 -6 0 -5 -7 3 -18 11 -14 10
-14 -8 2 -13 10 -20 22 -18 26 6 9 -84 105 -91 97 -3 -2 12 -22 33 -42 28 -28
31 -33 11 -21 -27 18 -61 61 -64 84 -3 18 -24 42 -37 42 -5 0 -2 -10 8 -22 11
-13 -2 -3 -27 22 -25 25 -44 47 -41 50 3 3 16 -8 30 -25 20 -23 23 -25 11 -5
-22 37 -80 100 -92 100 -5 0 1 -12 15 -27 23 -27 23 -27 -9 1 -32 30 -42 43
-21 30 7 -4 10 -1 7 6 -2 7 -12 14 -22 16 -10 1 -21 6 -24 10 -4 4 1 4 11 1
11 -4 17 -3 15 4 -2 6 -7 9 -12 7 -5 -2 -13 7 -17 20 -5 13 -13 21 -18 17 -5
-3 -13 0 -17 6 -5 8 -3 9 6 4 8 -5 11 -3 8 6 -3 8 -12 13 -21 11 -8 -1 -19 3
-23 9 -4 8 -3 9 4 5 7 -4 12 -3 12 2 0 12 -35 43 -42 37 -3 -3 -13 5 -24 17
-19 22 -19 22 1 8 18 -14 18 -13 -2 20 -12 19 -28 36 -35 38 -8 2 -8 0 2 -7 8
-5 12 -12 9 -16 -3 -3 -14 5 -25 17 -10 12 -13 18 -6 14 15 -9 15 -1 2 24 -6
11 -17 17 -24 14 -8 -3 -17 -1 -21 5 -3 7 0 8 9 5 9 -3 16 -1 16 5 0 10 -14
15 -33 12 -5 -1 -6 3 -2 9 9 14 -14 52 -29 47 -7 -3 -18 5 -26 16 -12 21 -12
21 5 7 16 -12 15 -8 -5 28 -13 23 -27 42 -30 42 -4 0 -12 12 -18 26 -7 14 -17
22 -22 19 -6 -3 -7 1 -4 10 5 11 2 14 -10 9 -12 -5 -15 -2 -9 12 3 9 2 15 -3
12 -5 -4 -10 5 -11 19 0 14 -6 30 -13 37 -10 8 -11 5 -5 -14 4 -14 6 -23 4
-20 -2 3 -13 16 -24 29 -11 14 -14 21 -7 17 8 -5 5 12 -9 46 -25 63 -33 74
-24 33 6 -27 5 -28 -6 -10 -7 10 -13 31 -14 45 -2 28 -34 94 -35 73 0 -7 -4
-13 -8 -13 -4 0 -8 17 -9 38 -1 20 -9 53 -18 72 -10 23 -14 26 -11 11 5 -23 4
-23 -11 -8 -11 10 -16 31 -16 54 1 21 -3 58 -9 83 -6 25 -14 95 -18 155 l-8
110 4 -115 c2 -63 6 -131 9 -150 3 -23 -1 -16 -12 20 -23 79 -28 205 -9 255
12 34 15 36 16 15 1 -18 6 -10 16 25 7 28 12 55 9 62 -2 7 0 15 6 18 5 4 7 10
5 14 -9 15 91 116 174 176 46 33 114 86 151 118 37 31 71 57 75 57 4 0 -10
-15 -31 -32 -21 -18 -48 -42 -60 -54 -12 -11 -37 -30 -56 -42 -19 -12 -29 -22
-24 -22 30 0 182 134 177 156 -2 8 3 12 11 8 8 -3 27 7 43 21 16 15 23 23 15
19 -27 -14 -5 14 50 65 31 28 64 51 73 51 9 0 16 5 16 11 0 5 -6 7 -12 3 -8
-4 -10 -3 -5 2 5 5 14 9 20 9 7 0 11 8 11 18 -1 9 2 17 8 17 5 0 6 5 3 10 -3
6 -1 10 4 10 6 0 11 -6 11 -12 1 -7 10 4 21 25 11 22 17 46 14 58 -7 21 10 27
18 7 2 -7 11 10 19 37 27 93 11 531 -19 502 -3 -4 0 -20 6 -38 6 -18 9 -34 7
-36 -7 -7 -28 62 -31 102 -2 22 -10 56 -19 75 -16 34 -17 34 -11 5 6 -28 5
-29 -8 -10 -8 10 -12 26 -9 34 3 9 1 12 -5 8 -7 -4 -9 0 -7 11 3 9 -4 38 -15
62 -11 25 -21 39 -21 33 0 -7 -4 -13 -10 -13 -5 0 -7 6 -4 14 3 8 -4 31 -15
53 -11 21 -20 32 -21 26 0 -7 -5 -13 -11 -13 -6 0 -9 7 -5 15 9 24 -22 88 -40
81 -9 -3 -12 -1 -9 4 3 6 1 10 -5 10 -6 0 -8 4 -5 10 3 5 -4 26 -15 47 -11 21
-18 28 -15 16 8 -30 1 -29 -20 3 -9 15 -12 23 -6 20 15 -10 14 0 -5 35 -9 18
-21 29 -29 25 -7 -2 -16 2 -19 10 -3 9 -1 12 4 9 15 -9 12 4 -11 45 -13 22
-27 36 -35 33 -7 -2 -18 6 -24 19 -11 22 -10 22 4 4 20 -25 20 -14 1 24 -11
21 -20 27 -32 23 -11 -4 -14 -3 -9 5 4 6 -3 28 -14 49 -13 25 -18 29 -14 13 6
-22 5 -23 -9 -11 -9 7 -14 17 -11 23 9 14 -57 103 -78 103 -3 0 -10 4 -15 9
-5 5 -3 6 5 2 6 -4 12 -2 12 3 0 6 -6 11 -14 11 -8 0 -25 10 -38 23 -13 12
-17 16 -8 10 9 -7 20 -13 25 -13 14 0 -16 29 -38 36 -35 11 -76 46 -70 60 5
13 -51 54 -72 54 -5 -1 7 -10 28 -21 22 -11 36 -23 34 -26 -3 -3 -27 9 -54 27
-26 18 -64 39 -83 46 -19 7 -29 13 -22 13 7 1 29 -6 49 -14 20 -8 38 -14 40
-11 2 2 -13 10 -34 18 -59 24 -328 21 -380 -3z"/>
</g>
</svg>
