<?xml version="1.0" standalone="no"?>
<!DOCTYPE svg PUBLIC "-//W3C//DTD SVG 20010904//EN"
 "http://www.w3.org/TR/2001/REC-SVG-20010904/DTD/svg10.dtd">
<svg version="1.0" xmlns="http://www.w3.org/2000/svg"
 width="2400.000000pt" height="2008.000000pt" viewBox="0 0 2400.000000 2008.000000"
 preserveAspectRatio="xMidYMid meet">

<g transform="translate(0.000000,2008.000000) scale(0.100000,-0.100000)"
fill="#000000" stroke="none">
<path d="M2035 19675 c-1101 -161 -1827 -1195 -1605 -2285 57 -282 203 -587
390 -815 81 -99 261 -270 357 -338 261 -186 564 -306 878 -349 149 -20 19740
-20 19890 0 817 110 1461 710 1630 1522 32 155 44 419 26 580 -76 661 -473
1223 -1066 1510 -142 69 -288 119 -457 157 l-123 28 -9915 1 c-8167 2 -9931 0
-10005 -11z"/>
<path d="M2083 11939 c-462 -54 -918 -292 -1218 -636 -665 -764 -627 -1905 87
-2614 313 -311 711 -499 1160 -548 135 -15 19638 -15 19776 -1 669 72 1229
460 1526 1057 125 249 184 489 193 779 8 253 -19 442 -96 673 -236 706 -857
1205 -1606 1291 -111 12 -19713 12 -19822 -1z"/>
<path d="M2110 4199 c-977 -100 -1720 -921 -1720 -1899 0 -882 600 -1647 1455
-1856 240 -58 -559 -54 10153 -54 6670 0 9856 3 9917 10 847 97 1517 730 1672
1580 22 121 25 496 5 610 -76 424 -257 777 -547 1065 -311 310 -721 501 -1169
544 -136 14 -19637 13 -19766 0z"/>
</g>
</svg>
